# xmcd CD database file
#
# Track frame offsets:
#	225
#	11901
#	25711
#	40318
#	53239
#	68970
#	80269
#	94830
#	107297
#	119364
#	131353
#	148010
#	159672
#	173546
#	188893
#
# Disc length: 2721 seconds
#
# Revision: 0
# Processed by: cddbd v1.4PL0 Copyright (c) Steve Scherf et al.
# Submitted via: CDex 1.40Release
#
DISCID=c10a9e0f
DTITLE=Tony Pritchett - Flowers on the field
DYEAR=1900
DGENRE=Country
TTITLE0=All I wanna do
TTITLE1=You're my star
TTITLE2=A rose in a bible
TTITLE3=Flowers in the field
TTITLE4=Cheatin' is so easy
TTITLE5=My mind says forget you
TTITLE6=Let's talk about Texas
TTITLE7=Cold hard light of day
TTITLE8=If you were me
TTITLE9=Guess I'll take my broken heart
TTITLE10=Always be my friend
TTITLE11=Sharp broken heart
TTITLE12=If pillows could talk
TTITLE13=The treehouse
TTITLE14=Roses in our garden
EXTD=ID3G: 2
EXTT0=
EXTT1=
EXTT2=
EXTT3=
EXTT4=
EXTT5=
EXTT6=
EXTT7=
EXTT8=
EXTT9=
EXTT10=
EXTT11=
EXTT12=
EXTT13=
EXTT14=
PLAYORDER=
